<svg xmlns="http://www.w3.org/2000/svg" viewBox="0 0 1074.43 305.47"><defs><style>.cls-1{fill:#ffd251;}.cls-2{fill:#595281;}.cls-3{fill:#b4629b;}.cls-4{fill:#cf6ba6;}.cls-5{fill:#fff3d0;}</style></defs><title>OFiesta-TermsandConditions-Heading</title><g id="Layer_2" data-name="Layer 2"><g id="Layer_1-2" data-name="Layer 1"><path class="cls-1" d="M1074.43,176.13l-16.57-11c-14.93-9.9-36.41-15.59-58.93-15.59a117.09,117.09,0,0,0-12.64.67,71,71,0,0,0,26.7-12.41c14.44-11.15,22.08-27.19,22.08-46.38V64.49c0-19.24-7.64-35.3-22.09-46.44-12.89-9.93-30.69-15.18-51.5-15.18H845.4V23.15L826.14,2.87H768.25V48L745.34,2.87H690.21L645.86,90.32V80a41.7,41.7,0,0,0-3.25-16.6l8-9.83V26.58l-16.57-11C619.14,5.68,597.66,0,575.14,0,556.55,0,540.63,4,529,11.33V2.87H469.85L449.33,29.39,429,2.87H369v9.68c-10.1-6.27-23.19-9.68-38.08-9.68H31.22v86H65.61V150c-17.82,1.49-33.08,7.23-44.51,16.85C7.29,178.44,0,194.77,0,214V241c0,19.25,7.17,35.57,20.75,47.19C34,299.49,52.36,305.47,74,305.47c22.26,0,42.46-7.27,55.91-19.8a59.23,59.23,0,0,0,4.57,3.94c13.35,10.38,31.74,15.86,53.18,15.86s39.91-5.48,53.27-15.85l.38-.3v13.29h65.29V276.83l25,25.78h103c20.54,0,38.18-5.15,51-14.88v14.88H552V238.42h9.12v64.19h66.41V238.42h9.23v64.19h66.41V289.42l.24.19c13.34,10.38,31.73,15.86,53.17,15.86s39.92-5.48,53.28-15.85l.38-.3v13.29h65.29V276.83l25,25.78h52.29v-7.08c14.52,6.53,31.47,9.94,49.79,9.94,25.86,0,44.74-6.61,56.14-19.64a44.69,44.69,0,0,0,11-29.39V229.5a41.65,41.65,0,0,0-3.25-16.59l8-9.84Z"/><path class="cls-2" d="M695,145.05l7.1-15.08h30.94l7.1,15.08h85.38V107.52l36.37,37.53h99.57c19,0,35.13-4.69,46.62-13.57,12.41-9.58,19-23.43,19-40V64.49c0-16.67-6.57-30.54-19-40.11-11.47-8.84-27.59-13.51-46.61-13.51H853.4V43.18L822.7,10.87H776.25V81.51L740.43,10.87H695.12L640.73,118.11v26.94H695Z"/><path class="cls-2" d="M1062.64,204.86h0V177.92l-9.2-6.11c-13.66-9.06-33.52-14.26-54.51-14.26-26.16,0-45.57,8.25-54.18,22V160.42H895.34v32.32l-30.7-32.32H818.19v26.73a50.14,50.14,0,0,0-13.29-15.42c-11.94-9.27-28.67-14.18-48.37-14.18s-36.33,4.91-48.26,14.18a50.34,50.34,0,0,0-13.15,15.21V160.42H493.54v27.66a47.69,47.69,0,0,0-12.43-14.14c-11.47-8.85-27.58-13.52-46.61-13.52H326.42v32.32l-30.7-32.32H249.27v26.73A50.24,50.24,0,0,0,236,171.73c-12-9.27-28.67-14.18-48.37-14.18s-36.34,4.91-48.27,14.18a51.23,51.23,0,0,0-9.55,9.7c-11-14.64-31.86-23.88-54.72-23.88C34.33,157.55,8,179.73,8,214V241c0,34.32,25.89,56.49,66,56.49,23.79,0,44.68-9,56-23.7a51.11,51.11,0,0,0,9.42,9.52c11.93,9.28,28.62,14.18,48.27,14.18S224,292.57,236,283.3a50.24,50.24,0,0,0,13.28-15.42v26.73h49.29V257.07l36.37,37.54H434.5c19,0,35.13-4.7,46.62-13.57a48.08,48.08,0,0,0,12.42-14.15v27.72H544V230.42h25.12v64.19h50.41V230.42h25.23v64.19h50.41V268.09a50.19,50.19,0,0,0,13.15,15.2c11.93,9.28,28.62,14.18,48.26,14.18s36.43-4.9,48.37-14.17a50.14,50.14,0,0,0,13.29-15.42v26.73h49.29V257.07l36.37,37.54h40.9V282.12c15.56,10.05,35.39,15.35,57.79,15.35,54.85,0,59.11-31.41,59.11-41V229.5a32.15,32.15,0,0,0-4.79-17.57Z"/><path class="cls-2" d="M73.61,145.05H124V80.87h25.24v64.18H309.09V119.38h5.73L336,145.05h90.23V112.11L443,132.84h11L470.93,112v33h50V132.57c15.56,10.05,35.39,15.35,57.79,15.35,54.85,0,59.11-31.41,59.11-41V80a32.15,32.15,0,0,0-4.79-17.57l5.78-7.08h0V28.36l-9.2-6.1C616,13.2,596.12,8,575.14,8,549,8,529.57,16.25,521,30V10.87H473.78L449.3,42.5,425,10.87H377V31.21c-8.11-12.78-24.47-20.34-46.08-20.34H39.22v70H73.61Z"/><path class="cls-3" d="M148.55,70.87H114v64.18H83.61V70.87H49.22V47.81h99.33Z"/><path class="cls-3" d="M255.1,113.12v21.93H159.26V47.81h94.47V69.75H189.05V80.84h52.72V101H189.05v12.09Z"/><path class="cls-3" d="M340.72,135.05l-21.19-25.67H299.09v25.67H268.93V47.81h61.94c23.31,0,41.76,10,41.76,30.78,0,14.34-8.73,23.56-21.82,27.92l24.56,28.54Zm-12.34-46c7.85,0,13.46-2.24,13.46-9.72s-5.61-9.72-13.46-9.72H299.09V89.06Z"/><path class="cls-3" d="M511,47.81v87.24h-30V83.83l-31.66,39h-1.5l-31.53-39v51.22H387V47.81H420.1l29.17,38,29.41-38Z"/><path class="cls-3" d="M627.86,106.89c0,18.82-16.83,31-49.11,31-22.68,0-42.37-6-56.46-16.58l15.09-17.45c10,7.48,24.8,12.59,41.87,12.59,12.47,0,18.57-2.12,18.57-6.48s-5-5.73-21.18-7.1C549.84,100.53,526,94.42,526,74.48c0-19.07,20.82-29.54,49.11-29.54,18.32,0,36.39,4.24,49,12.59l-14.46,17.7c-9.84-6.48-21.43-9.1-34.52-9.1-8.85,0-19.07,1.12-19.07,5.86,0,4.24,7.85,5.11,21.94,6.23C607.17,80.59,627.86,86.2,627.86,106.89Z"/><path class="cls-3" d="M739.4,120H695.78l-7.11,15.08H657l44.24-87.24h33l44.24,87.24h-32Zm-9.22-19.69L717.59,73.36,705,100.28Z"/><path class="cls-3" d="M892.81,47.81v87.24H866.14l-50.6-52.22v52.22H786.25V47.81h32.16l45,47.36V47.81Z"/><path class="cls-3" d="M1017.07,91.43c0,27.55-21.69,43.62-55.59,43.62H910.63V47.81h50.85C995.38,47.81,1017.07,63.76,1017.07,91.43Zm-31,0C986,78.22,975.69,71,959,71H941v40.88h18C975.69,111.87,986,104.64,986,91.43Z"/><path class="cls-3" d="M99.26,251.08l25,13.21C116.46,277.5,98.14,287.47,74,287.47c-33,0-56-16.7-56-46.49S40.93,194.5,75.08,194.5c23.06,0,41.25,10.09,48.85,23.05L98.76,230.64C93.4,222.29,85.17,218.3,74.7,218.3c-15.45,0-25.92,8.23-25.92,22.68s10.47,22.69,25.92,22.69C85.17,263.67,93.52,259.93,99.26,251.08Z"/><path class="cls-3" d="M129.54,241c0-29.78,23.18-46.48,58.08-46.48s58.2,16.7,58.2,46.48-23.18,46.49-58.2,46.49S129.54,270.77,129.54,241Zm85.37,0c0-14.33-10.34-22.68-27.29-22.68s-27.3,8.35-27.3,22.68,10.35,22.69,27.3,22.69S214.91,255.32,214.91,241Z"/><path class="cls-3" d="M365.84,197.36v87.25H339.16l-50.6-52.23v52.23H259.27V197.36h32.16l45,47.36V197.36Z"/><path class="cls-3" d="M490.09,241c0,27.55-21.69,43.63-55.59,43.63H383.65V197.36H434.5C468.4,197.36,490.09,213.31,490.09,241Zm-31,0c0-13.21-10.34-20.44-27-20.44H414.06v40.88H432C448.71,261.42,459.05,254.2,459.05,241Z"/><path class="cls-3" d="M503.54,284.61V197.36H534v87.25Z"/><path class="cls-3" d="M644,220.42H609.48v64.19H579.07V220.42h-34.4V197.36H644Z"/><path class="cls-3" d="M654.71,284.61V197.36h30.41v87.25Z"/><path class="cls-3" d="M698.45,241c0-29.78,23.19-46.48,58.08-46.48s58.21,16.7,58.21,46.48-23.18,46.49-58.21,46.49S698.45,270.77,698.45,241Zm85.38,0c0-14.33-10.35-22.68-27.3-22.68s-27.29,8.35-27.29,22.68,10.34,22.69,27.29,22.69S783.83,255.32,783.83,241Z"/><path class="cls-3" d="M934.75,197.36v87.25H908.08l-50.6-52.23v52.23H828.19V197.36h32.16l45,47.36V197.36Z"/><path class="cls-3" d="M1051.65,256.44c0,18.82-16.83,31-49.11,31-22.68,0-42.37-6-56.45-16.57l15.08-17.45C971.14,260.93,986,266,1003,266c12.47,0,18.57-2.12,18.57-6.49s-5-5.73-21.18-7.1c-26.8-2.37-50.61-8.47-50.61-28.42,0-19.06,20.82-29.53,49.11-29.53,18.32,0,36.39,4.23,49,12.58l-14.46,17.7c-9.84-6.48-21.43-9.1-34.52-9.1-8.85,0-19.07,1.13-19.07,5.86,0,4.24,7.85,5.11,21.94,6.23C1031,230.14,1051.65,235.75,1051.65,256.44Z"/><path class="cls-4" d="M148.55,56.87H114v64.18H83.61V56.87H49.22V33.81h99.33Z"/><path class="cls-4" d="M255.1,99.12v21.93H159.26V33.81h94.47V55.75H189.05V66.84h52.72V87H189.05V99.12Z"/><path class="cls-4" d="M340.72,121.05,319.53,95.38H299.09v25.67H268.93V33.81h61.94c23.31,0,41.76,10,41.76,30.78,0,14.34-8.73,23.56-21.82,27.92l24.56,28.54Zm-12.34-46c7.85,0,13.46-2.24,13.46-9.72s-5.61-9.72-13.46-9.72H299.09V75.06Z"/><path class="cls-4" d="M511,33.81v87.24h-30V69.83l-31.66,39h-1.5l-31.53-39v51.22H387V33.81H420.1l29.17,38,29.41-38Z"/><path class="cls-4" d="M627.86,92.89c0,18.82-16.83,31-49.11,31-22.68,0-42.37-6-56.46-16.58l15.09-17.45c10,7.48,24.8,12.59,41.87,12.59,12.47,0,18.57-2.12,18.57-6.48s-5-5.73-21.18-7.1C549.84,86.53,526,80.42,526,60.48c0-19.07,20.82-29.54,49.11-29.54,18.32,0,36.39,4.24,49,12.59l-14.46,17.7c-9.84-6.48-21.43-9.1-34.52-9.1-8.85,0-19.07,1.12-19.07,5.86,0,4.24,7.85,5.11,21.94,6.23C607.17,66.59,627.86,72.2,627.86,92.89Z"/><path class="cls-4" d="M739.4,106H695.78l-7.11,15.08H657l44.24-87.24h33l44.24,87.24h-32Zm-9.22-19.69L717.59,59.36,705,86.28Z"/><path class="cls-4" d="M892.81,33.81v87.24H866.14l-50.6-52.22v52.22H786.25V33.81h32.16l45,47.36V33.81Z"/><path class="cls-4" d="M1017.07,77.43c0,27.55-21.69,43.62-55.59,43.62H910.63V33.81h50.85C995.38,33.81,1017.07,49.76,1017.07,77.43Zm-31,0C986,64.22,975.69,57,959,57H941V97.87h18C975.69,97.87,986,90.64,986,77.43Z"/><path class="cls-4" d="M99.26,237.08l25,13.21C116.46,263.5,98.14,273.47,74,273.47c-33,0-56-16.7-56-46.49S40.93,180.5,75.08,180.5c23.06,0,41.25,10.09,48.85,23.05L98.76,216.64C93.4,208.29,85.17,204.3,74.7,204.3c-15.45,0-25.92,8.23-25.92,22.68s10.47,22.69,25.92,22.69C85.17,249.67,93.52,245.93,99.26,237.08Z"/><path class="cls-4" d="M129.54,227c0-29.78,23.18-46.48,58.08-46.48s58.2,16.7,58.2,46.48-23.18,46.49-58.2,46.49S129.54,256.77,129.54,227Zm85.37,0c0-14.33-10.34-22.68-27.29-22.68s-27.3,8.35-27.3,22.68,10.35,22.69,27.3,22.69S214.91,241.32,214.91,227Z"/><path class="cls-4" d="M365.84,183.36v87.25H339.16l-50.6-52.23v52.23H259.27V183.36h32.16l45,47.36V183.36Z"/><path class="cls-4" d="M490.09,227c0,27.55-21.69,43.63-55.59,43.63H383.65V183.36H434.5C468.4,183.36,490.09,199.31,490.09,227Zm-31,0c0-13.21-10.34-20.44-27-20.44H414.06v40.88H432C448.71,247.42,459.05,240.2,459.05,227Z"/><path class="cls-4" d="M503.54,270.61V183.36H534v87.25Z"/><path class="cls-4" d="M644,206.42H609.48v64.19H579.07V206.42h-34.4V183.36H644Z"/><path class="cls-4" d="M654.71,270.61V183.36h30.41v87.25Z"/><path class="cls-4" d="M698.45,227c0-29.78,23.19-46.48,58.08-46.48s58.21,16.7,58.21,46.48-23.18,46.49-58.21,46.49S698.45,256.77,698.45,227Zm85.38,0c0-14.33-10.35-22.68-27.3-22.68s-27.29,8.35-27.29,22.68,10.34,22.69,27.29,22.69S783.83,241.32,783.83,227Z"/><path class="cls-4" d="M934.75,183.36v87.25H908.08l-50.6-52.23v52.23H828.19V183.36h32.16l45,47.36V183.36Z"/><path class="cls-4" d="M1051.65,242.44c0,18.82-16.83,31-49.11,31-22.68,0-42.37-6-56.45-16.57l15.08-17.45C971.14,246.93,986,252,1003,252c12.47,0,18.57-2.12,18.57-6.49s-5-5.73-21.18-7.1c-26.8-2.37-50.61-8.47-50.61-28.42,0-19.06,20.82-29.53,49.11-29.53,18.32,0,36.39,4.23,49,12.58l-14.46,17.7c-9.84-6.48-21.43-9.1-34.52-9.1-8.85,0-19.07,1.13-19.07,5.86,0,4.24,7.85,5.11,21.94,6.23C1031,216.14,1051.65,221.75,1051.65,242.44Z"/><path class="cls-5" d="M148.55,43.93H114v64.18H83.61V43.93H49.22V20.87h99.33Z"/><path class="cls-5" d="M255.1,86.18v21.93H159.26V20.87h94.47V42.8H189.05V53.9h52.72V74.09H189.05V86.18Z"/><path class="cls-5" d="M340.72,108.11,319.53,82.44H299.09v25.67H268.93V20.87h61.94c23.31,0,41.76,10,41.76,30.78,0,14.34-8.73,23.56-21.82,27.92l24.56,28.54Zm-12.34-46c7.85,0,13.46-2.24,13.46-9.72s-5.61-9.72-13.46-9.72H299.09V62.12Z"/><path class="cls-5" d="M511,20.87v87.24h-30V56.89l-31.66,39h-1.5l-31.53-39v51.22H387V20.87H420.1l29.17,38,29.41-38Z"/><path class="cls-5" d="M627.86,79.94c0,18.82-16.83,31-49.11,31-22.68,0-42.37-6-56.46-16.58L537.38,77c10,7.48,24.8,12.59,41.87,12.59,12.47,0,18.57-2.12,18.57-6.48s-5-5.73-21.18-7.1C549.84,73.59,526,67.48,526,47.54,526,28.47,546.85,18,575.14,18c18.32,0,36.39,4.24,49,12.59l-14.46,17.7c-9.84-6.48-21.43-9.1-34.52-9.1-8.85,0-19.07,1.12-19.07,5.86,0,4.23,7.85,5.11,21.94,6.23C607.17,53.65,627.86,59.26,627.86,79.94Z"/><path class="cls-5" d="M739.4,93H695.78l-7.11,15.08H657l44.24-87.24h33l44.24,87.24h-32Zm-9.22-19.69L717.59,46.42,705,73.34Z"/><path class="cls-5" d="M892.81,20.87v87.24H866.14l-50.6-52.22v52.22H786.25V20.87h32.16l45,47.36V20.87Z"/><path class="cls-5" d="M1017.07,64.49c0,27.54-21.69,43.62-55.59,43.62H910.63V20.87h50.85C995.38,20.87,1017.07,36.82,1017.07,64.49Zm-31,0c0-13.21-10.34-20.44-27-20.44H941V84.93h18C975.69,84.93,986,77.7,986,64.49Z"/><path class="cls-5" d="M99.26,224.14l25,13.21c-7.85,13.21-26.17,23.18-50.35,23.18-33,0-56-16.7-56-46.49s22.93-46.49,57.08-46.49c23.06,0,41.25,10.1,48.85,23.06L98.76,203.7c-5.36-8.35-13.59-12.34-24.06-12.34-15.45,0-25.92,8.23-25.92,22.68s10.47,22.69,25.92,22.69C85.17,236.73,93.52,233,99.26,224.14Z"/><path class="cls-5" d="M129.54,214c0-29.78,23.18-46.49,58.08-46.49s58.2,16.71,58.2,46.49-23.18,46.49-58.2,46.49S129.54,243.83,129.54,214Zm85.37,0c0-14.33-10.34-22.68-27.29-22.68s-27.3,8.35-27.3,22.68,10.35,22.69,27.3,22.69S214.91,228.38,214.91,214Z"/><path class="cls-5" d="M365.84,170.42v87.24H339.16l-50.6-52.22v52.22H259.27V170.42h32.16l45,47.36V170.42Z"/><path class="cls-5" d="M490.09,214c0,27.55-21.69,43.62-55.59,43.62H383.65V170.42H434.5C468.4,170.42,490.09,186.37,490.09,214Zm-31,0c0-13.21-10.34-20.44-27-20.44H414.06v40.88H432C448.71,234.48,459.05,227.25,459.05,214Z"/><path class="cls-5" d="M503.54,257.66V170.42H534v87.24Z"/><path class="cls-5" d="M644,193.48H609.48v64.18H579.07V193.48h-34.4V170.42H644Z"/><path class="cls-5" d="M654.71,257.66V170.42h30.41v87.24Z"/><path class="cls-5" d="M698.45,214c0-29.78,23.19-46.49,58.08-46.49s58.21,16.71,58.21,46.49-23.18,46.49-58.21,46.49S698.45,243.83,698.45,214Zm85.38,0c0-14.33-10.35-22.68-27.3-22.68s-27.29,8.35-27.29,22.68,10.34,22.69,27.29,22.69S783.83,228.38,783.83,214Z"/><path class="cls-5" d="M934.75,170.42v87.24H908.08l-50.6-52.22v52.22H828.19V170.42h32.16l45,47.36V170.42Z"/><path class="cls-5" d="M1051.65,229.5c0,18.82-16.83,31-49.11,31-22.68,0-42.37-6-56.45-16.58l15.08-17.44c10,7.47,24.8,12.58,41.87,12.58,12.47,0,18.57-2.11,18.57-6.48s-5-5.73-21.18-7.1c-26.8-2.37-50.61-8.48-50.61-28.42,0-19.07,20.82-29.54,49.11-29.54,18.32,0,36.39,4.24,49,12.59l-14.46,17.7c-9.84-6.48-21.43-9.1-34.52-9.1-8.85,0-19.07,1.12-19.07,5.86,0,4.24,7.85,5.11,21.94,6.23C1031,203.2,1051.65,208.81,1051.65,229.5Z"/></g></g></svg>