<svg xmlns="http://www.w3.org/2000/svg" viewBox="0 0 1397.6 770.67"><defs><style>.cls-1{fill:#595281;}.cls-2{fill:#b4629b;}.cls-3{fill:#cf6ca6;}.cls-4,.cls-5{fill:#fff4d0;}.cls-5{font-size:52.06px;font-family:Termina-Heavy, Termina;font-weight:800;letter-spacing:-0.03em;}.cls-6{letter-spacing:-0.06em;}.cls-7{letter-spacing:-0.06em;}.cls-8{letter-spacing:-0.04em;}</style></defs><title>OFiesta-Lockup</title><g id="Layer_2" data-name="Layer 2"><g id="Layer_1-2" data-name="Layer 1"><path class="cls-1" d="M0,255c0,81.49,55.29,132,138.28,132,0,0,79-1,107.45-44.92v38.59H379.36l-.2,32.09,17.27,20.63a92.22,92.22,0,0,0-8.89,31.05l-.17,1.66v85.44h174.1V542C576.66,551.2,595.22,556,616,556c20.13,0,38.24-4.53,53.18-13.21v8.73H843.26V542C858.45,551.2,877,556,897.76,556c59.32,0,97.65-39.4,97.65-100.37V419.86a122,122,0,0,0-6.09-39.19h213.16l13.58-33.87h53.43l13.57,33.87H1397.6V344.88L1289.16,93.54h-92.05l-8.8,20.39V93.54H951.39v10c-23.24-10.65-50.88-16.43-79.2-16.43-37.89,0-68.91,10.27-89.68,29.29V93.54H301.79v-.07H227.53v24.35c-23.35-20.16-55.1-30.72-93-30.72C51.55,87.1,0,137.72,0,219.21Z"/><path class="cls-2" d="M476.58,384.33c28.51,0,59.17,12.47,59.17,42.86,0,23.38-18.07,37.21-42.93,45.59-16.58,5.84-31.66,12.85-35.3,17.92H537.9V525h-127V504.73c2.82-27.28,22.87-49.68,57.52-61C483,438.68,495,435.18,495,428.16c0-6.81-9.77-10.52-20.38-10.52-14.59,0-29.17,7.21-41.93,20.65l-20.89-24.93C424.7,397,448.73,384.33,476.58,384.33Z"/><path class="cls-2" d="M542.05,456.8c0-46.56,28.84-72.66,73.92-72.66,45.25,0,74.09,26.1,74.09,72.66S661.22,529.47,616,529.47C570.89,529.47,542.05,503.36,542.05,456.8Zm107.07,0c0-22.6-12.26-35.45-33-35.45-20.89,0-33.15,12.85-33.15,35.45s12.26,35.46,33.15,35.46C636.86,492.26,649.12,479.4,649.12,456.8Z"/><path class="cls-2" d="M758.36,384.33c28.51,0,59.17,12.47,59.17,42.86,0,23.38-18.07,37.21-42.93,45.59C758,478.62,743,485.63,739.3,490.7h80.38V525H692.73V504.73c2.81-27.28,22.87-49.68,57.51-61,14.58-5.07,26.52-8.57,26.52-15.59,0-6.81-9.78-10.52-20.39-10.52-14.58,0-29.17,7.21-41.93,20.65l-20.89-24.93C706.48,397,730.52,384.33,758.36,384.33Z"/><path class="cls-2" d="M823.84,456.8c0-46.56,28.83-72.66,73.92-72.66,45.25,0,74.08,26.1,74.08,72.66S943,529.47,897.76,529.47C852.67,529.47,823.84,503.36,823.84,456.8Zm107.06,0c0-22.6-12.26-35.45-33-35.45-20.88,0-33.14,12.85-33.14,35.45s12.26,35.46,33.14,35.46C918.64,492.26,930.9,479.4,930.9,456.8Z"/><path class="cls-2" d="M23.57,256.15c0-66.89,44.29-104.39,111-104.39,66.91,0,111.2,37.5,111.2,104.39s-44.29,104.4-111.2,104.4C67.86,360.55,23.57,323.05,23.57,256.15Zm163.11,0c0-32.18-19.76-50.93-52.15-50.93-32.14,0-52.14,18.75-52.14,50.93s19.76,50.94,52.14,50.94S186.68,288.34,186.68,256.15Z"/><path class="cls-2" d="M351,209.41v29.67H451.49V288.9H351v65.21h-58.1V158.2H472.68v51.21Z"/><path class="cls-2" d="M495.08,354.11V158.2h58.1V354.11Z"/><path class="cls-2" d="M761.56,304.85v49.26H578.45V158.2H758.94v49.25H635.36v24.91H736.08V277.7H635.36v27.15Z"/><path class="cls-2" d="M972.91,290.86c0,42.26-32.14,69.69-93.82,69.69-43.33,0-81-13.43-107.86-37.22L800,284.14c19.05,16.79,47.39,28.27,80,28.27,23.81,0,35.48-4.76,35.48-14.55,0-9.52-9.53-12.88-40.48-16-51.2-5.31-96.68-19-96.68-63.81,0-42.82,39.77-66.33,93.82-66.33,35,0,69.53,9.51,93.58,28.27l-27.63,39.74c-18.8-14.55-40.95-20.43-65.95-20.43-16.91,0-36.43,2.52-36.43,13.15,0,9.52,15,11.48,41.91,14C933.38,231.8,972.91,244.4,972.91,290.86Z"/><path class="cls-2" d="M1164.74,210h-66V354.11h-58.1V210H975V158.2h189.78Z"/><path class="cls-2" d="M1284.44,320.25h-83.33l-13.58,33.86h-60.48l84.53-195.91h63.1l84.53,195.91H1298ZM1266.82,276l-24-60.46-24,60.46Z"/><path class="cls-2" d="M251.1,158.12v39.64l16.69.05s2.2,29.28-12.56,33.91V240s23-2.08,23-36.73V158.12Z"/><path class="cls-3" d="M476.58,365.86c28.51,0,59.17,12.47,59.17,42.86,0,23.38-18.07,37.21-42.93,45.58-16.58,5.85-31.66,12.86-35.3,17.93H537.9v34.28h-127V486.25c2.82-27.27,22.87-49.67,57.52-61C483,420.21,495,416.7,495,409.69c0-6.82-9.77-10.52-20.38-10.52-14.59,0-29.17,7.21-41.93,20.65l-20.89-24.93C424.7,378.52,448.73,365.86,476.58,365.86Z"/><path class="cls-3" d="M542.05,438.33c0-46.56,28.84-72.67,73.92-72.67,45.25,0,74.09,26.11,74.09,72.67S661.22,511,616,511C570.89,511,542.05,484.89,542.05,438.33Zm107.07,0c0-22.6-12.26-35.46-33-35.46-20.89,0-33.15,12.86-33.15,35.46s12.26,35.46,33.15,35.46C636.86,473.79,649.12,460.93,649.12,438.33Z"/><path class="cls-3" d="M758.36,365.86c28.51,0,59.17,12.47,59.17,42.86,0,23.38-18.07,37.21-42.93,45.58C758,460.15,743,467.16,739.3,472.23h80.38v34.28H692.73V486.25c2.81-27.27,22.87-49.67,57.51-61,14.58-5.07,26.52-8.58,26.52-15.59,0-6.82-9.78-10.52-20.39-10.52-14.58,0-29.17,7.21-41.93,20.65l-20.89-24.93C706.48,378.52,730.52,365.86,758.36,365.86Z"/><path class="cls-3" d="M823.84,438.33c0-46.56,28.83-72.67,73.92-72.67,45.25,0,74.08,26.11,74.08,72.67S943,511,897.76,511C852.67,511,823.84,484.89,823.84,438.33Zm107.06,0c0-22.6-12.26-35.46-33-35.46-20.88,0-33.14,12.86-33.14,35.46s12.26,35.46,33.14,35.46C918.64,473.79,930.9,460.93,930.9,438.33Z"/><path class="cls-3" d="M23.57,237.68c0-66.89,44.29-104.39,111-104.39,66.91,0,111.2,37.5,111.2,104.39s-44.29,104.4-111.2,104.4C67.86,342.08,23.57,304.57,23.57,237.68Zm163.11,0c0-32.19-19.76-50.94-52.15-50.94-32.14,0-52.14,18.75-52.14,50.94s19.76,50.94,52.14,50.94S186.68,269.87,186.68,237.68Z"/><path class="cls-3" d="M351,190.94v29.67H451.49v49.82H351v65.21h-58.1V139.72H472.68v51.22Z"/><path class="cls-3" d="M495.08,335.64V139.72h58.1V335.64Z"/><path class="cls-3" d="M761.56,286.38v49.26H578.45V139.72H758.94V189H635.36v24.91H736.08v45.34H635.36v27.15Z"/><path class="cls-3" d="M972.91,272.39c0,42.26-32.14,69.69-93.82,69.69-43.33,0-81-13.44-107.86-37.23L800,265.67c19.05,16.79,47.39,28.27,80,28.27,23.81,0,35.48-4.76,35.48-14.56,0-9.51-9.53-12.87-40.48-15.95-51.2-5.32-96.68-19-96.68-63.81,0-42.82,39.77-66.33,93.82-66.33,35,0,69.53,9.51,93.58,28.26L938.14,201.3c-18.8-14.56-40.95-20.43-65.95-20.43-16.91,0-36.43,2.51-36.43,13.15,0,9.52,15,11.47,41.91,14C933.38,213.33,972.91,225.93,972.91,272.39Z"/><path class="cls-3" d="M1164.74,191.5h-66V335.64h-58.1V191.5H975V139.72h189.78Z"/><path class="cls-3" d="M1284.44,301.77h-83.33l-13.58,33.87h-60.48l84.53-195.92h63.1l84.53,195.92H1298Zm-17.62-44.22-24-60.45-24,60.45Z"/><path class="cls-3" d="M251.1,139.65v39.64l16.69.05s2.2,29.28-12.56,33.91v8.31s23-2.08,23-36.72V139.65Z"/><path class="cls-4" d="M476.58,347.39c28.51,0,59.17,12.46,59.17,42.85,0,23.38-18.07,37.21-42.93,45.59-16.58,5.85-31.66,12.86-35.3,17.92H537.9V488h-127V467.78c2.82-27.27,22.87-49.68,57.52-61C483,401.74,495,398.23,495,391.22c0-6.82-9.77-10.52-20.38-10.52-14.59,0-29.17,7.21-41.93,20.65l-20.89-24.94C424.7,360.05,448.73,347.39,476.58,347.39Z"/><path class="cls-4" d="M542.05,419.86c0-46.56,28.84-72.67,73.92-72.67,45.25,0,74.09,26.11,74.09,72.67S661.22,492.52,616,492.52C570.89,492.52,542.05,466.42,542.05,419.86Zm107.07,0c0-22.6-12.26-35.46-33-35.46-20.89,0-33.15,12.86-33.15,35.46s12.26,35.45,33.15,35.45C636.86,455.31,649.12,442.46,649.12,419.86Z"/><path class="cls-4" d="M758.36,347.39c28.51,0,59.17,12.46,59.17,42.85,0,23.38-18.07,37.21-42.93,45.59C758,441.68,743,448.69,739.3,453.75h80.38V488H692.73V467.78c2.81-27.27,22.87-49.68,57.51-61,14.58-5.06,26.52-8.57,26.52-15.58,0-6.82-9.78-10.52-20.39-10.52-14.58,0-29.17,7.21-41.93,20.65l-20.89-24.94C706.48,360.05,730.52,347.39,758.36,347.39Z"/><path class="cls-4" d="M823.84,419.86c0-46.56,28.83-72.67,73.92-72.67,45.25,0,74.08,26.11,74.08,72.67S943,492.52,897.76,492.52C852.67,492.52,823.84,466.42,823.84,419.86Zm107.06,0c0-22.6-12.26-35.46-33-35.46-20.88,0-33.14,12.86-33.14,35.46s12.26,35.45,33.14,35.45C918.64,455.31,930.9,442.46,930.9,419.86Z"/><path class="cls-4" d="M23.57,219.21c0-66.89,44.29-104.4,111-104.4,66.91,0,111.2,37.51,111.2,104.4S201.44,323.6,134.53,323.6C67.86,323.6,23.57,286.1,23.57,219.21Zm163.11,0c0-32.19-19.76-50.94-52.15-50.94-32.14,0-52.14,18.75-52.14,50.94s19.76,50.94,52.14,50.94S186.68,251.4,186.68,219.21Z"/><path class="cls-4" d="M351,172.47v29.67H451.49V252H351v65.22h-58.1V121.25H472.68v51.22Z"/><path class="cls-4" d="M495.08,317.17V121.25h58.1V317.17Z"/><path class="cls-4" d="M761.56,267.91v49.26H578.45V121.25H758.94v49.26H635.36v24.91H736.08v45.34H635.36v27.15Z"/><path class="cls-4" d="M972.91,253.91c0,42.27-32.14,69.69-93.82,69.69-43.33,0-81-13.43-107.86-37.22L800,247.2c19.05,16.79,47.39,28.26,80,28.26,23.81,0,35.48-4.75,35.48-14.55,0-9.51-9.53-12.87-40.48-16-51.2-5.32-96.68-19-96.68-63.82,0-42.82,39.77-66.33,93.82-66.33,35,0,69.53,9.52,93.58,28.27l-27.63,39.74c-18.8-14.55-40.95-20.43-65.95-20.43-16.91,0-36.43,2.52-36.43,13.16,0,9.51,15,11.47,41.91,14C933.38,194.86,972.91,207.45,972.91,253.91Z"/><path class="cls-4" d="M1164.74,173h-66V317.17h-58.1V173H975V121.25h189.78Z"/><path class="cls-4" d="M1284.44,283.3h-83.33l-13.58,33.87h-60.48l84.53-195.92h63.1l84.53,195.92H1298Zm-17.62-44.22-24-60.45-24,60.45Z"/><path class="cls-4" d="M251.1,121.17v39.64l16.69.06s2.2,29.28-12.56,33.91v8.31s23-2.08,23-36.72v-45.2Z"/><path class="cls-4" d="M228.69,634.62v7.67h30.56v12.89H228.69v16.88H211v-50.7H265.7v13.26Z"/><path class="cls-4" d="M320.89,658.51v13.55H270.7v-50.7h17.67v37.15Z"/><path class="cls-4" d="M325.46,672.06v-50.7h17.67v50.7Z"/><path class="cls-4" d="M413.6,621.36v50.7H398.1l-29.4-30.35v30.35h-17v-50.7h18.68l26.15,27.52V621.36Z"/><path class="cls-4" d="M484,646.71c0,16-12.6,25.35-32.3,25.35H422.15v-50.7H451.7C471.4,621.36,484,630.63,484,646.71Zm-18,0c0-7.68-6-11.88-15.71-11.88H439.82v23.76h10.43C460,658.59,466,654.39,466,646.71Z"/><path class="cls-4" d="M545.71,659.31v12.75H490v-50.7h54.89v12.75H507.33v6.44H538v11.74H507.33v7Z"/><path class="cls-4" d="M593.66,672.06l-12.31-14.92H569.47v14.92H552v-50.7h36c13.54,0,24.26,5.8,24.26,17.89,0,8.33-5.07,13.69-12.67,16.22l14.26,16.59Zm-7.17-26.73c4.56,0,7.82-1.3,7.82-5.64s-3.26-5.65-7.82-5.65h-17v11.29Z"/><path class="cls-4" d="M675.87,655.69c0,10.94-9.78,18-28.54,18-13.18,0-24.62-3.47-32.8-9.63L623.29,654c5.79,4.35,14.41,7.32,24.33,7.32,7.24,0,10.79-1.23,10.79-3.77s-2.89-3.33-12.31-4.13c-15.57-1.37-29.4-4.92-29.4-16.51,0-11.08,12.09-17.16,28.53-17.16,10.65,0,21.15,2.46,28.46,7.31l-8.4,10.29c-5.72-3.77-12.45-5.29-20.06-5.29-5.14,0-11.08.65-11.08,3.4,0,2.47,4.57,3,12.75,3.62C663.85,640.41,675.87,643.67,675.87,655.69Z"/><path class="cls-4" d="M757.28,621.36v26.8c0,15.64-10.87,25.56-30.27,25.56s-30.35-9.92-30.35-25.56v-26.8h17.67v25.42c0,7.53,3.91,13,12.68,13s12.6-5.44,12.6-13V621.36Z"/><path class="cls-4" d="M827,621.36v50.7H811.46l-29.41-30.35v30.35H765v-50.7h18.68l26.14,27.52V621.36Z"/><path class="cls-4" d="M835.51,672.06v-50.7h17.67v50.7Z"/><path class="cls-4" d="M937.63,639.61c0,12.32-9.71,18.33-24.26,18.33H895.48v14.12H877.81v-50.7h35.56C927.92,621.36,937.63,627.37,937.63,639.61Zm-17.89.44c0-4.49-3.26-6-7.82-6H895.48v12.09h16.44C916.48,646.13,919.74,644.54,919.74,640.05Z"/><path class="cls-4" d="M992.68,658.51v13.55H942.49v-50.7h17.67v37.15Z"/><path class="cls-4" d="M1039.18,663.3h-25.35l-4.13,8.76H991.31l25.71-50.7h19.19l25.71,50.7H1043.3Zm-5.36-11.45-7.32-15.64-7.31,15.64Z"/><path class="cls-4" d="M1119.79,631.87l-32.3,27.37H1121v12.82h-58.88v-10.5l32.3-27.38h-31V621.36h56.41Z"/><path class="cls-4" d="M1169,663.3H1143.7l-4.13,8.76h-18.39l25.7-50.7h19.19l25.71,50.7h-18.61Zm-5.35-11.45-7.32-15.64-7.31,15.64Z"/><path class="cls-4" d="M307.2,724.54v7.67h30.56v12.9H307.2V762H289.53V711.29h54.68v13.25Z"/><path class="cls-4" d="M404.91,749.23V762H349.22V711.29h54.89V724H366.52v6.45h30.64v11.73H366.52v7Z"/><path class="cls-4" d="M472.41,748.15c0,8.47-8.11,13.83-20.86,13.83H411.14V711.29h37.52c12.74,0,20.85,5.21,20.85,13.18,0,5.72-4.27,10.71-11.95,11.22C465.67,736.2,472.41,740.47,472.41,748.15Zm-43.89-17h17.24c3.62,0,6.23-1.09,6.23-4.27s-2.61-4.2-6.23-4.2H428.52ZM454.31,746c0-3.25-2.47-4.56-6.45-4.56H428.52v9.2h19.34C451.84,750.61,454.31,749.23,454.31,746Z"/><path class="cls-4" d="M520,709.69c12.46,0,25.86,4.64,25.86,15.93,0,8.69-7.9,13.84-18.76,17-7.24,2.17-13.83,4.78-15.43,6.66H546.8V762H491.32v-7.53c1.24-10.14,10-18.47,25.13-22.67C522.83,729.9,528,728.59,528,726s-4.27-3.91-8.91-3.91c-6.37,0-12.74,2.68-18.32,7.67l-9.12-9.27C497.34,714.4,507.84,709.69,520,709.69Z"/><path class="cls-4" d="M610.82,747.86c0,10-12.45,15.78-30.05,15.78s-30-5.79-30-15.78c0-7.1,6.23-10.94,13.69-12.24-7.54-1-11.74-5.87-11.74-11.59,0-9.92,13-14.41,28-14.41s28.1,4.49,28.1,14.41c0,5.72-4.2,10.58-11.73,11.59C604.6,736.92,610.82,740.76,610.82,747.86Zm-18.32-1.38c0-4.05-5.5-5.72-11.73-5.72s-11.66,1.67-11.66,5.72,5.5,5.79,11.66,5.79S592.5,750.61,592.5,746.48Zm-11.73-15.64c5.5,0,10.36-1.67,10.36-4.93S586.27,721,580.77,721s-10.28,1.59-10.28,4.92S575.34,730.84,580.77,730.84Z"/><path class="cls-4" d="M665.3,711.29h15.86v59.38H665.3Z"/><path class="cls-4" d="M767.78,724.61H734.32V711.29h54.39V721.5L762,762h-19.7Z"/><path class="cls-4" d="M790.68,728.88c0-4.7,3.91-8.33,9.55-8.33s9.64,3.63,9.64,8.33-3.92,8.26-9.64,8.26S790.68,733.59,790.68,728.88Zm0,25.86c0-4.64,3.91-8.33,9.55-8.33s9.64,3.69,9.64,8.33-3.92,8.32-9.64,8.32S790.68,759.44,790.68,754.74Z"/><path class="cls-4" d="M813.42,736.63c0-17.31,12.6-27,32.3-27s32.37,9.7,32.37,27-12.6,27-32.37,27S813.42,753.94,813.42,736.63Zm46.78,0c0-8.4-5.36-13.18-14.41-13.18s-14.48,4.78-14.48,13.18,5.35,13.18,14.48,13.18S860.2,745,860.2,736.63Z"/><path class="cls-4" d="M881.5,736.63c0-17.31,12.6-27,32.3-27s32.37,9.7,32.37,27-12.6,27-32.37,27S881.5,753.94,881.5,736.63Zm46.79,0c0-8.4-5.36-13.18-14.42-13.18s-14.48,4.78-14.48,13.18,5.36,13.18,14.48,13.18S928.29,745,928.29,736.63Z"/><path class="cls-4" d="M1028.09,729.54c0,12.31-9.7,18.32-24.26,18.32H985.94V762H968.27V711.29h35.56C1018.39,711.29,1028.09,717.3,1028.09,729.54Zm-17.89.43c0-4.49-3.25-6-7.82-6H985.94v12.09h16.44C1007,736.05,1010.2,734.46,1010.2,730Z"/><path class="cls-4" d="M1105,711.29V762h-17.45V732.21l-18.4,22.67h-.87L1050,732.21V762h-17V711.29h19.27l16.94,22.08,17.09-22.08Z"/><text class="cls-5" transform="translate(416.82 44.25)">FU<tspan class="cls-6" x="91.42" y="0">S</tspan><tspan class="cls-7" x="135.15" y="0">A</tspan><tspan x="181.85" y="0" xml:space="preserve"> PRESEN</tspan><tspan class="cls-8" x="472.99" y="0">T</tspan><tspan x="514.07" y="0">S</tspan></text></g></g></svg>