<?xml version="1.0" encoding="utf-8"?>
<!-- Generator: Adobe Illustrator 23.0.4, SVG Export Plug-In . SVG Version: 6.00 Build 0)  -->
<svg version="1.1" id="Layer_1" xmlns="http://www.w3.org/2000/svg" xmlns:xlink="http://www.w3.org/1999/xlink" x="0px" y="0px"
	 viewBox="0 0 1397.6 770.7" style="enable-background:new 0 0 1397.6 770.7;" xml:space="preserve">
<style type="text/css">
	.st0{fill:#595281;}
	.st1{fill:#B4629B;}
	.st2{fill:#CF6CA6;}
	.st3{fill:#FFF4D0;}
	.st4{enable-background:new    ;}
</style>
<title>OFiesta-Lockup</title>
<g>
	<g id="Layer_1-2">
		<path class="st0" d="M0,255c0,81.5,55.3,132,138.3,132c0,0,79-1,107.4-44.9v38.6h133.6l-0.2,32.1l17.3,20.6
			c-4.8,9.7-7.8,20.3-8.9,31l-0.2,1.7v85.4h174.1V542c15.2,9.2,33.8,14,54.5,14c20.1,0,38.2-4.5,53.2-13.2v8.7h174.1V542
			c15.2,9.2,33.7,14,54.5,14c59.3,0,97.7-39.4,97.7-100.4v-35.8c0.1-13.3-1.9-26.5-6.1-39.2h213.2l13.6-33.9h53.4l13.6,33.9h114.5
			v-35.8L1289.2,93.5h-92.1l-8.8,20.4V93.5H951.4v10c-23.2-10.7-50.9-16.4-79.2-16.4c-37.9,0-68.9,10.3-89.7,29.3V93.5H301.8v-0.1
			h-74.3v24.3c-23.4-20.2-55.1-30.7-93-30.7C51.5,87.1,0,137.7,0,219.2V255z"/>
		<path class="st1" d="M476.6,384.3c28.5,0,59.2,12.5,59.2,42.9c0,23.4-18.1,37.2-42.9,45.6c-16.6,5.8-31.7,12.9-35.3,17.9h80.4V525
			h-127v-20.3c2.8-27.3,22.9-49.7,57.5-61c14.6-5.1,26.6-8.6,26.6-15.6c0-6.8-9.8-10.5-20.4-10.5c-14.6,0-29.2,7.2-41.9,20.6
			l-20.9-24.9C424.7,397,448.7,384.3,476.6,384.3z"/>
		<path class="st1" d="M542,456.8c0-46.6,28.8-72.7,73.9-72.7c45.2,0,74.1,26.1,74.1,72.7s-28.8,72.7-74.1,72.7
			C570.9,529.5,542,503.4,542,456.8z M649.1,456.8c0-22.6-12.3-35.5-33-35.5c-20.9,0-33.2,12.9-33.2,35.5s12.3,35.5,33.2,35.5
			C636.9,492.3,649.1,479.4,649.1,456.8z"/>
		<path class="st1" d="M758.4,384.3c28.5,0,59.2,12.5,59.2,42.9c0,23.4-18.1,37.2-42.9,45.6c-16.6,5.8-31.6,12.9-35.3,17.9h80.4V525
			h-127v-20.3c2.8-27.3,22.9-49.7,57.5-61c14.6-5.1,26.5-8.6,26.5-15.6c0-6.8-9.8-10.5-20.4-10.5c-14.6,0-29.2,7.2-41.9,20.6
			l-20.9-24.9C706.5,397,730.5,384.3,758.4,384.3z"/>
		<path class="st1" d="M823.8,456.8c0-46.6,28.8-72.7,73.9-72.7c45.2,0,74.1,26.1,74.1,72.7s-28.8,72.7-74.1,72.7
			C852.7,529.5,823.8,503.4,823.8,456.8z M930.9,456.8c0-22.6-12.3-35.5-33-35.5c-20.9,0-33.1,12.9-33.1,35.5s12.3,35.5,33.1,35.5
			C918.6,492.3,930.9,479.4,930.9,456.8z"/>
		<path class="st1" d="M23.6,256.1c0-66.9,44.3-104.4,111-104.4c66.9,0,111.2,37.5,111.2,104.4s-44.3,104.4-111.2,104.4
			C67.9,360.5,23.6,323,23.6,256.1z M186.7,256.1c0-32.2-19.8-50.9-52.1-50.9c-32.1,0-52.1,18.8-52.1,50.9s19.8,50.9,52.1,50.9
			S186.7,288.3,186.7,256.1z"/>
		<path class="st1" d="M351,209.4v29.7h100.5v49.8H351v65.2h-58.1V158.2h179.8v51.2H351z"/>
		<path class="st1" d="M495.1,354.1V158.2h58.1v195.9H495.1z"/>
		<path class="st1" d="M761.6,304.9v49.3H578.5V158.2h180.5v49.2H635.4v24.9h100.7v45.3H635.4v27.1H761.6z"/>
		<path class="st1" d="M972.9,290.9c0,42.3-32.1,69.7-93.8,69.7c-43.3,0-81-13.4-107.9-37.2l28.8-39.2c19,16.8,47.4,28.3,80,28.3
			c23.8,0,35.5-4.8,35.5-14.5c0-9.5-9.5-12.9-40.5-16c-51.2-5.3-96.7-19-96.7-63.8c0-42.8,39.8-66.3,93.8-66.3
			c35,0,69.5,9.5,93.6,28.3l-27.6,39.7c-18.8-14.6-41-20.4-66-20.4c-16.9,0-36.4,2.5-36.4,13.1c0,9.5,15,11.5,41.9,14
			C933.4,231.8,972.9,244.4,972.9,290.9z"/>
		<path class="st1" d="M1164.7,210h-66v144.1h-58.1V210H975v-51.8h189.8L1164.7,210z"/>
		<path class="st1" d="M1284.4,320.2h-83.3l-13.6,33.9h-60.5l84.5-195.9h63.1l84.5,195.9H1298L1284.4,320.2z M1266.8,276l-24-60.5
			l-24,60.5H1266.8z"/>
		<path class="st1" d="M251.1,158.1v39.6l16.7,0.1c0,0,2.2,29.3-12.6,33.9v8.3c0,0,23-2.1,23-36.7v-45.2H251.1z"/>
		<path class="st2" d="M476.6,365.9c28.5,0,59.2,12.5,59.2,42.9c0,23.4-18.1,37.2-42.9,45.6c-16.6,5.9-31.7,12.9-35.3,17.9h80.4
			v34.3h-127v-20.3c2.8-27.3,22.9-49.7,57.5-61c14.6-5,26.6-8.5,26.6-15.6c0-6.8-9.8-10.5-20.4-10.5c-14.6,0-29.2,7.2-41.9,20.6
			l-20.9-24.9C424.7,378.5,448.7,365.9,476.6,365.9z"/>
		<path class="st2" d="M542,438.3c0-46.6,28.8-72.7,73.9-72.7c45.2,0,74.1,26.1,74.1,72.7S661.2,511,616,511
			C570.9,511,542,484.9,542,438.3z M649.1,438.3c0-22.6-12.3-35.5-33-35.5c-20.9,0-33.2,12.9-33.2,35.5s12.3,35.5,33.2,35.5
			C636.9,473.8,649.1,460.9,649.1,438.3z"/>
		<path class="st2" d="M758.4,365.9c28.5,0,59.2,12.5,59.2,42.9c0,23.4-18.1,37.2-42.9,45.6c-16.6,5.9-31.6,12.9-35.3,17.9h80.4
			v34.3h-127v-20.3c2.8-27.3,22.9-49.7,57.5-61c14.6-5.1,26.5-8.6,26.5-15.6c0-6.8-9.8-10.5-20.4-10.5c-14.6,0-29.2,7.2-41.9,20.6
			l-20.9-24.9C706.5,378.5,730.5,365.9,758.4,365.9z"/>
		<path class="st2" d="M823.8,438.3c0-46.6,28.8-72.7,73.9-72.7c45.2,0,74.1,26.1,74.1,72.7S943,511,897.8,511
			C852.7,511,823.8,484.9,823.8,438.3z M930.9,438.3c0-22.6-12.3-35.5-33-35.5c-20.9,0-33.1,12.9-33.1,35.5s12.3,35.5,33.1,35.5
			C918.6,473.8,930.9,460.9,930.9,438.3z"/>
		<path class="st2" d="M23.6,237.7c0-66.9,44.3-104.4,111-104.4c66.9,0,111.2,37.5,111.2,104.4s-44.3,104.4-111.2,104.4
			C67.9,342.1,23.6,304.6,23.6,237.7z M186.7,237.7c0-32.2-19.8-50.9-52.1-50.9c-32.1,0-52.1,18.8-52.1,50.9s19.8,50.9,52.1,50.9
			S186.7,269.9,186.7,237.7z"/>
		<path class="st2" d="M351,190.9v29.7h100.5v49.8H351v65.2h-58.1V139.7h179.8v51.2H351z"/>
		<path class="st2" d="M495.1,335.6V139.7h58.1v195.9H495.1z"/>
		<path class="st2" d="M761.6,286.4v49.3H578.5V139.7h180.5V189H635.4v24.9h100.7v45.3H635.4v27.1L761.6,286.4z"/>
		<path class="st2" d="M972.9,272.4c0,42.3-32.1,69.7-93.8,69.7c-43.3,0-81-13.4-107.9-37.2l28.8-39.2c19,16.8,47.4,28.3,80,28.3
			c23.8,0,35.5-4.8,35.5-14.6c0-9.5-9.5-12.9-40.5-16c-51.2-5.3-96.7-19-96.7-63.8c0-42.8,39.8-66.3,93.8-66.3
			c35,0,69.5,9.5,93.6,28.3l-27.6,39.8c-18.8-14.6-41-20.4-66-20.4c-16.9,0-36.4,2.5-36.4,13.1c0,9.5,15,11.5,41.9,14
			C933.4,213.3,972.9,225.9,972.9,272.4z"/>
		<path class="st2" d="M1164.7,191.5h-66v144.1h-58.1V191.5H975v-51.8h189.8L1164.7,191.5z"/>
		<path class="st2" d="M1284.4,301.8h-83.3l-13.6,33.9h-60.5l84.5-195.9h63.1l84.5,195.9H1298L1284.4,301.8z M1266.8,257.5l-24-60.4
			l-24,60.4H1266.8z"/>
		<path class="st2" d="M251.1,139.6v39.6l16.7,0.1c0,0,2.2,29.3-12.6,33.9v8.3c0,0,23-2.1,23-36.7v-45.2H251.1z"/>
		<path class="st3" d="M476.6,347.4c28.5,0,59.2,12.5,59.2,42.9c0,23.4-18.1,37.2-42.9,45.6c-16.6,5.9-31.7,12.9-35.3,17.9h80.4V488
			h-127v-20.2c2.8-27.3,22.9-49.7,57.5-61c14.6-5,26.6-8.5,26.6-15.6c0-6.8-9.8-10.5-20.4-10.5c-14.6,0-29.2,7.2-41.9,20.6
			l-20.9-24.9C424.7,360,448.7,347.4,476.6,347.4z"/>
		<path class="st3" d="M542,419.9c0-46.6,28.8-72.7,73.9-72.7c45.2,0,74.1,26.1,74.1,72.7s-28.8,72.7-74.1,72.7
			C570.9,492.5,542,466.4,542,419.9z M649.1,419.9c0-22.6-12.3-35.5-33-35.5c-20.9,0-33.2,12.9-33.2,35.5s12.3,35.5,33.2,35.5
			C636.9,455.3,649.1,442.5,649.1,419.9z"/>
		<path class="st3" d="M758.4,347.4c28.5,0,59.2,12.5,59.2,42.9c0,23.4-18.1,37.2-42.9,45.6c-16.6,5.8-31.6,12.9-35.3,17.9h80.4V488
			h-127v-20.2c2.8-27.3,22.9-49.7,57.5-61c14.6-5.1,26.5-8.6,26.5-15.6c0-6.8-9.8-10.5-20.4-10.5c-14.6,0-29.2,7.2-41.9,20.6
			l-20.9-24.9C706.5,360,730.5,347.4,758.4,347.4z"/>
		<path class="st3" d="M823.8,419.9c0-46.6,28.8-72.7,73.9-72.7c45.2,0,74.1,26.1,74.1,72.7s-28.8,72.7-74.1,72.7
			C852.7,492.5,823.8,466.4,823.8,419.9z M930.9,419.9c0-22.6-12.3-35.5-33-35.5c-20.9,0-33.1,12.9-33.1,35.5s12.3,35.5,33.1,35.5
			C918.6,455.3,930.9,442.5,930.9,419.9z"/>
		<path class="st3" d="M23.6,219.2c0-66.9,44.3-104.4,111-104.4c66.9,0,111.2,37.5,111.2,104.4s-44.3,104.4-111.2,104.4
			C67.9,323.6,23.6,286.1,23.6,219.2z M186.7,219.2c0-32.2-19.8-50.9-52.1-50.9c-32.1,0-52.1,18.8-52.1,50.9s19.8,50.9,52.1,50.9
			S186.7,251.4,186.7,219.2z"/>
		<path class="st3" d="M351,172.5v29.7h100.5V252H351v65.2h-58.1v-196h179.8v51.2H351z"/>
		<path class="st3" d="M495.1,317.2V121.2h58.1v195.9H495.1z"/>
		<path class="st3" d="M761.6,267.9v49.3H578.5V121.2h180.5v49.3H635.4v24.9h100.7v45.3H635.4v27.2H761.6z"/>
		<path class="st3" d="M972.9,253.9c0,42.3-32.1,69.7-93.8,69.7c-43.3,0-81-13.4-107.9-37.2l28.8-39.2c19,16.8,47.4,28.3,80,28.3
			c23.8,0,35.5-4.8,35.5-14.5c0-9.5-9.5-12.9-40.5-16c-51.2-5.3-96.7-19-96.7-63.8c0-42.8,39.8-66.3,93.8-66.3
			c35,0,69.5,9.5,93.6,28.3l-27.6,39.7c-18.8-14.6-41-20.4-66-20.4c-16.9,0-36.4,2.5-36.4,13.2c0,9.5,15,11.5,41.9,14
			C933.4,194.9,972.9,207.4,972.9,253.9z"/>
		<path class="st3" d="M1164.7,173h-66v144.2h-58.1V173H975v-51.8h189.8L1164.7,173z"/>
		<path class="st3" d="M1284.4,283.3h-83.3l-13.6,33.9h-60.5l84.5-195.9h63.1l84.5,195.9H1298L1284.4,283.3z M1266.8,239.1l-24-60.4
			l-24,60.4H1266.8z"/>
		<path class="st3" d="M251.1,121.2v39.6l16.7,0.1c0,0,2.2,29.3-12.6,33.9v8.3c0,0,23-2.1,23-36.7v-45.2H251.1z"/>
		<path class="st3" d="M228.7,634.6v7.7h30.6v12.9h-30.6v16.9H211v-50.7h54.7v13.3H228.7z"/>
		<path class="st3" d="M320.9,658.5v13.5h-50.2v-50.7h17.7v37.2H320.9z"/>
		<path class="st3" d="M325.5,672.1v-50.7h17.7v50.7H325.5z"/>
		<path class="st3" d="M413.6,621.4v50.7h-15.5l-29.4-30.3v30.3h-17v-50.7h18.7l26.1,27.5v-27.5H413.6z"/>
		<path class="st3" d="M484,646.7c0,16-12.6,25.3-32.3,25.3h-29.6v-50.7h29.6C471.4,621.4,484,630.6,484,646.7z M466,646.7
			c0-7.7-6-11.9-15.7-11.9h-10.5v23.8h10.4C460,658.6,466,654.4,466,646.7z"/>
		<path class="st3" d="M545.7,659.3v12.8H490v-50.7h54.9v12.8h-37.6v6.4H538v11.7h-30.7v7L545.7,659.3z"/>
		<path class="st3" d="M593.7,672.1l-12.3-14.9h-11.9v14.9H552v-50.7h36c13.5,0,24.3,5.8,24.3,17.9c0,8.3-5.1,13.7-12.7,16.2
			l14.3,16.6H593.7z M586.5,645.3c4.6,0,7.8-1.3,7.8-5.6s-3.3-5.7-7.8-5.7h-17v11.3L586.5,645.3z"/>
		<path class="st3" d="M675.9,655.7c0,10.9-9.8,18-28.5,18c-13.2,0-24.6-3.5-32.8-9.6l8.8-10.1c5.8,4.3,14.4,7.3,24.3,7.3
			c7.2,0,10.8-1.2,10.8-3.8s-2.9-3.3-12.3-4.1c-15.6-1.4-29.4-4.9-29.4-16.5c0-11.1,12.1-17.2,28.5-17.2c10.7,0,21.2,2.5,28.5,7.3
			l-8.4,10.3c-5.7-3.8-12.5-5.3-20.1-5.3c-5.1,0-11.1,0.7-11.1,3.4c0,2.5,4.6,3,12.8,3.6C663.8,640.4,675.9,643.7,675.9,655.7z"/>
		<path class="st3" d="M757.3,621.4v26.8c0,15.6-10.9,25.6-30.3,25.6s-30.3-9.9-30.3-25.6v-26.8h17.7v25.4c0,7.5,3.9,13,12.7,13
			s12.6-5.4,12.6-13v-25.4H757.3z"/>
		<path class="st3" d="M827,621.4v50.7h-15.5l-29.4-30.3v30.3H765v-50.7h18.7l26.1,27.5v-27.5H827z"/>
		<path class="st3" d="M835.5,672.1v-50.7h17.7v50.7H835.5z"/>
		<path class="st3" d="M937.6,639.6c0,12.3-9.7,18.3-24.3,18.3h-17.9v14.1h-17.7v-50.7h35.6C927.9,621.4,937.6,627.4,937.6,639.6z
			 M919.7,640c0-4.5-3.3-6-7.8-6h-16.4v12.1h16.4C916.5,646.1,919.7,644.5,919.7,640z"/>
		<path class="st3" d="M992.7,658.5v13.5h-50.2v-50.7h17.7v37.2H992.7z"/>
		<path class="st3" d="M1039.2,663.3h-25.3l-4.1,8.8h-18.4l25.7-50.7h19.2l25.7,50.7h-18.6L1039.2,663.3z M1033.8,651.8l-7.3-15.6
			l-7.3,15.6H1033.8z"/>
		<path class="st3" d="M1119.8,631.9l-32.3,27.4h33.5v12.8h-58.9v-10.5l32.3-27.4h-31v-12.8h56.4L1119.8,631.9z"/>
		<path class="st3" d="M1169,663.3h-25.3l-4.1,8.8h-18.4l25.7-50.7h19.2l25.7,50.7h-18.6L1169,663.3z M1163.7,651.8l-7.3-15.6
			l-7.3,15.6H1163.7z"/>
		<path class="st3" d="M307.2,724.5v7.7h30.6v12.9h-30.6V762h-17.7v-50.7h54.7v13.2H307.2z"/>
		<path class="st3" d="M404.9,749.2V762h-55.7v-50.7h54.9V724h-37.6v6.5h30.6v11.7h-30.6v7L404.9,749.2z"/>
		<path class="st3" d="M472.4,748.2c0,8.5-8.1,13.8-20.9,13.8h-40.4v-50.7h37.5c12.7,0,20.9,5.2,20.9,13.2c0,5.7-4.3,10.7-12,11.2
			C465.7,736.2,472.4,740.5,472.4,748.2z M428.5,731.2h17.2c3.6,0,6.2-1.1,6.2-4.3s-2.6-4.2-6.2-4.2h-17.2L428.5,731.2z M454.3,746
			c0-3.2-2.5-4.6-6.5-4.6h-19.3v9.2h19.3C451.8,750.6,454.3,749.2,454.3,746z"/>
		<path class="st3" d="M520,709.7c12.5,0,25.9,4.6,25.9,15.9c0,8.7-7.9,13.8-18.8,17c-7.2,2.2-13.8,4.8-15.4,6.7h35.1V762h-55.5
			v-7.5c1.2-10.1,10-18.5,25.1-22.7c6.4-1.9,11.5-3.2,11.5-5.8s-4.3-3.9-8.9-3.9c-6.4,0-12.7,2.7-18.3,7.7l-9.1-9.3
			C497.3,714.4,507.8,709.7,520,709.7z"/>
		<path class="st3" d="M610.8,747.9c0,10-12.5,15.8-30,15.8s-30-5.8-30-15.8c0-7.1,6.2-10.9,13.7-12.2c-7.5-1-11.7-5.9-11.7-11.6
			c0-9.9,13-14.4,28-14.4s28.1,4.5,28.1,14.4c0,5.7-4.2,10.6-11.7,11.6C604.6,736.9,610.8,740.8,610.8,747.9z M592.5,746.5
			c0-4-5.5-5.7-11.7-5.7s-11.7,1.7-11.7,5.7s5.5,5.8,11.7,5.8S592.5,750.6,592.5,746.5z M580.8,730.8c5.5,0,10.4-1.7,10.4-4.9
			s-4.9-4.9-10.4-4.9s-10.3,1.6-10.3,4.9S575.3,730.8,580.8,730.8L580.8,730.8z"/>
		<path class="st3" d="M665.3,711.3h15.9v59.4h-15.9V711.3z"/>
		<path class="st3" d="M767.8,724.6h-33.5v-13.3h54.4v10.2L762,762h-19.7L767.8,724.6z"/>
		<path class="st3" d="M790.7,728.9c0-4.7,3.9-8.3,9.5-8.3s9.6,3.6,9.6,8.3s-3.9,8.3-9.6,8.3S790.7,733.6,790.7,728.9z M790.7,754.7
			c0-4.6,3.9-8.3,9.5-8.3s9.6,3.7,9.6,8.3s-3.9,8.3-9.6,8.3S790.7,759.4,790.7,754.7z"/>
		<path class="st3" d="M813.4,736.6c0-17.3,12.6-27,32.3-27s32.4,9.7,32.4,27s-12.6,27-32.4,27S813.4,753.9,813.4,736.6z
			 M860.2,736.6c0-8.4-5.4-13.2-14.4-13.2s-14.5,4.8-14.5,13.2s5.3,13.2,14.5,13.2S860.2,745,860.2,736.6L860.2,736.6z"/>
		<path class="st3" d="M881.5,736.6c0-17.3,12.6-27,32.3-27s32.4,9.7,32.4,27s-12.6,27-32.4,27S881.5,753.9,881.5,736.6z
			 M928.3,736.6c0-8.4-5.4-13.2-14.4-13.2s-14.5,4.8-14.5,13.2s5.4,13.2,14.5,13.2S928.3,745,928.3,736.6z"/>
		<path class="st3" d="M1028.1,729.5c0,12.3-9.7,18.3-24.3,18.3h-17.9V762h-17.7v-50.7h35.6C1018.4,711.3,1028.1,717.3,1028.1,729.5
			z M1010.2,730c0-4.5-3.2-6-7.8-6h-16.4v12.1h16.4C1007,736,1010.2,734.5,1010.2,730L1010.2,730z"/>
		<path class="st3" d="M1105,711.3V762h-17.4v-29.8l-18.4,22.7h-0.9l-18.3-22.7V762h-17v-50.7h19.3l16.9,22.1l17.1-22.1H1105z"/>
		<g class="st4">
			<path class="st3" d="M433.3,17.3v5.5h22v9.3h-22v12.1h-12.7V7.8h39.3v9.5H433.3z"/>
			<path class="st3" d="M506.2,7.8v19.3c0,11.2-7.8,18.4-21.8,18.4c-14,0-21.8-7.1-21.8-18.4V7.8h12.7v18.3c0,5.4,2.8,9.3,9.1,9.3
				c6.2,0,9.1-3.9,9.1-9.3V7.8H506.2z"/>
		</g>
		<g class="st4">
			<path class="st3" d="M553.4,32.5c0,7.9-7,13-20.5,13c-9.5,0-17.7-2.5-23.6-6.9l6.3-7.3c4.2,3.1,10.4,5.3,17.5,5.3
				c5.2,0,7.8-0.9,7.8-2.7c0-1.8-2.1-2.4-8.9-3c-11.2-1-21.1-3.5-21.1-11.9c0-8,8.7-12.3,20.5-12.3c7.7,0,15.2,1.8,20.5,5.3l-6,7.4
				c-4.1-2.7-9-3.8-14.4-3.8c-3.7,0-8,0.5-8,2.4c0,1.8,3.3,2.1,9.2,2.6C544.7,21.5,553.4,23.8,553.4,32.5z"/>
		</g>
		<g class="st4">
			<path class="st3" d="M585.9,38h-18.2l-3,6.3h-13.2l18.5-36.4h13.8l18.5,36.4h-13.4L585.9,38z M582,29.7l-5.3-11.2l-5.3,11.2H582z
				"/>
		</g>
		<g class="st4">
			<path class="st3" d="M656.7,20.9c0,8.9-7,13.2-17.4,13.2h-12.9v10.2h-12.7V7.8h25.6C649.7,7.8,656.7,12.1,656.7,20.9z
				 M643.9,21.2c0-3.2-2.3-4.3-5.6-4.3h-11.8v8.7h11.8C641.5,25.6,643.9,24.5,643.9,21.2z"/>
			<path class="st3" d="M689.9,44.3l-8.9-10.7h-8.5v10.7h-12.6V7.8h25.9c9.7,0,17.4,4.2,17.4,12.9c0,6-3.6,9.8-9.1,11.7l10.3,11.9
				H689.9z M684.8,25c3.3,0,5.6-0.9,5.6-4.1c0-3.1-2.3-4.1-5.6-4.1h-12.2V25H684.8z"/>
			<path class="st3" d="M747.7,35.1v9.2h-40V7.8h39.5V17h-27v4.6h22V30h-22v5H747.7z"/>
			<path class="st3" d="M793.3,32.5c0,7.9-7,13-20.5,13c-9.5,0-17.7-2.5-23.6-6.9l6.3-7.3c4.2,3.1,10.4,5.3,17.5,5.3
				c5.2,0,7.8-0.9,7.8-2.7c0-1.8-2.1-2.4-8.9-3c-11.2-1-21.1-3.5-21.1-11.9c0-8,8.7-12.3,20.5-12.3c7.7,0,15.2,1.8,20.5,5.3l-6,7.4
				c-4.1-2.7-9-3.8-14.4-3.8c-3.7,0-8,0.5-8,2.4c0,1.8,3.3,2.1,9.2,2.6C784.7,21.5,793.3,23.8,793.3,32.5z"/>
			<path class="st3" d="M837.1,35.1v9.2h-40V7.8h39.5V17h-27v4.6h22V30h-22v5H837.1z"/>
			<path class="st3" d="M885.8,7.8v36.4h-11.1l-21.1-21.8v21.8h-12.2V7.8h13.4l18.8,19.8V7.8H885.8z"/>
		</g>
		<g class="st4">
			<path class="st3" d="M932.1,17.4h-14.4v26.8H905V17.4h-14.4V7.8h41.5V17.4z"/>
		</g>
		<g class="st4">
			<path class="st3" d="M976,32.5c0,7.9-7,13-20.5,13c-9.5,0-17.7-2.5-23.6-6.9l6.3-7.3c4.2,3.1,10.4,5.3,17.5,5.3
				c5.2,0,7.8-0.9,7.8-2.7c0-1.8-2.1-2.4-8.9-3c-11.2-1-21.1-3.5-21.1-11.9c0-8,8.7-12.3,20.5-12.3c7.7,0,15.2,1.8,20.5,5.3l-6,7.4
				c-4.1-2.7-9-3.8-14.4-3.8c-3.7,0-8,0.5-8,2.4c0,1.8,3.3,2.1,9.2,2.6C967.4,21.5,976,23.8,976,32.5z"/>
		</g>
	</g>
</g>
</svg>
